<svg width="30" height="30" viewBox="0 0 30 30" fill="none" xmlns="http://www.w3.org/2000/svg">
<path d="M25.1685 13.1646L23.4803 16.0886C23.1506 16.6596 23.3462 17.3897 23.9171 17.7193C24.4883 18.049 25.2184 17.8534 25.548 17.2824L27.2357 14.3593C28.1936 15.4805 28.3929 17.1269 27.6135 18.4769C26.8935 19.7239 25.5369 20.3741 24.1913 20.2541L21.0894 25.6264C20.6775 26.3402 19.7648 26.5847 19.0511 26.1726C18.3374 25.7606 18.0928 24.8479 18.5049 24.1343L21.6002 18.7729C20.8074 17.6653 20.685 16.152 21.4104 14.8956C22.1904 13.5447 23.7176 12.8941 25.1685 13.1646ZM19.6899 3.75229C22.2788 3.75229 24.3774 5.85096 24.3774 8.43979V11.2313C23.7341 11.2477 23.0987 11.3777 22.5024 11.6134V9.37504H5.62741V19.6898C5.62741 21.243 6.8866 22.5023 8.43991 22.5023H17.282L16.8811 23.1968C16.6641 23.5725 16.5279 23.9726 16.4668 24.3772H8.43991C5.85108 24.3772 3.75241 22.2786 3.75241 19.6898V8.43979C3.75241 5.85096 5.85108 3.75229 8.43991 3.75229H19.6899ZM16.6031 11.5264L19.5321 14.4554C19.0489 15.5306 18.9428 16.6955 19.1681 17.7872L16.6031 20.3522C16.2369 20.7184 15.6433 20.7184 15.2772 20.3522C14.9111 19.9862 14.9111 19.3926 15.2772 19.0264L18.3643 15.9393L15.2772 12.8522C14.9111 12.4861 14.9111 11.8925 15.2772 11.5264C15.6433 11.1603 16.2369 11.1603 16.6031 11.5264ZM12.8517 11.5264C13.2178 11.8925 13.2178 12.4861 12.8517 12.8522L9.7646 15.9393L12.8517 19.0264C13.2178 19.3926 13.2178 19.9862 12.8517 20.3522C12.4856 20.7184 11.892 20.7184 11.5259 20.3522L7.77586 16.6022C7.60004 16.4264 7.50127 16.188 7.50127 15.9393C7.50127 15.6907 7.60004 15.4523 7.77586 15.2764L11.5259 11.5264C11.892 11.1603 12.4856 11.1603 12.8517 11.5264Z" fill="#212121"/>
</svg>
