<svg width="101" height="101" viewBox="0 0 101 101" fill="none" xmlns="http://www.w3.org/2000/svg">
<path fill-rule="evenodd" clip-rule="evenodd" d="M50.3445 0.666836C25.7108 0.641242 4.70104 18.8836 0.756869 43.7225C-3.18728 68.5617 11.1005 92.6528 34.4791 100.583C37.0052 101.055 37.8986 99.4497 37.8986 98.0962C37.8986 96.7431 37.8986 93.659 37.8986 89.3791C23.8815 92.495 20.9241 82.4872 20.9241 82.4872C19.9942 79.3857 18.0187 76.721 15.3481 74.9663C10.8195 71.8193 15.7178 71.8193 15.7178 71.8193C18.9344 72.2834 21.7632 74.2329 23.3886 77.1062C24.7654 79.6563 27.0795 81.5408 29.8197 82.3441C32.5598 83.1471 35.5003 82.8024 37.991 81.3861C38.1844 78.7972 39.2769 76.3639 41.0717 74.5258C29.9197 73.2356 18.2131 68.8296 18.2131 49.3501C18.1366 44.2615 19.9786 39.3375 23.3578 35.5979C21.8528 31.1734 22.0287 26.333 23.8508 22.0346C23.8508 22.0346 28.0713 20.6499 37.6521 27.29C45.8794 24.9825 54.563 24.9825 62.7905 27.29C72.3714 20.6499 76.5611 22.0346 76.5611 22.0346C78.4085 26.2874 78.628 31.0932 77.1769 35.5035C80.5562 39.2431 82.3983 44.167 82.322 49.2556C82.322 68.9558 70.5847 73.2668 59.4017 74.4313C61.8278 76.9226 63.0755 80.3674 62.8211 83.872C62.8211 90.7326 62.8211 96.271 62.8211 97.9388C62.8211 99.6066 63.7144 100.897 66.2715 100.394C89.3724 92.2587 103.38 68.3098 99.4456 43.6744C95.5112 19.0394 74.7787 0.879848 50.3445 0.666836Z" fill="white"/>
</svg>
