<svg width="30" height="30" viewBox="0 0 30 30" fill="none" xmlns="http://www.w3.org/2000/svg">
<g clip-path="url(#clip0_1_2094)">
<path d="M0 15C0 6.71573 6.71573 0 15 0C23.2843 0 30 6.71573 30 15C30 23.2843 23.2843 30 15 30C6.71573 30 0 23.2843 0 15Z" fill="#EDC9C9"/>
<path d="M21.5435 20.7687H8.43806C7.92989 20.7687 7.50195 20.3542 7.50195 19.8326V10.3646C7.50195 9.8564 7.91651 9.42847 8.43806 9.42847H21.5435C22.0517 9.42847 22.4797 9.84303 22.4797 10.3646V19.8326C22.4797 20.3542 22.0651 20.7687 21.5435 20.7687Z" fill="#E3E3E3"/>
<path opacity="0.1" d="M9.37415 20.7687L14.9774 16.2621L15.0175 16.0214L9.24042 11.8624L9.22705 20.5682L9.37415 20.7687Z" fill="#231F20"/>
<path d="M8.43806 20.7688C7.91651 20.7688 7.50195 20.3542 7.50195 19.8327V10.3512C7.50195 9.82969 7.91651 9.73608 8.43806 9.73608C8.9596 9.73608 9.37417 9.84307 9.37417 10.3512V20.7688H8.43806Z" fill="#D54B3D"/>
<path d="M8.43806 9.86981C9.10671 9.86981 9.24044 10.0704 9.24044 10.3512V20.635H8.43806C7.99675 20.635 7.63568 20.274 7.63568 19.8327V10.3512C7.63568 10.057 7.76941 9.86981 8.43806 9.86981ZM8.43806 9.73608C7.91651 9.73608 7.50195 9.84307 7.50195 10.3512V19.8327C7.50195 20.3542 7.91651 20.7688 8.43806 20.7688H9.37417V10.3512C9.37417 9.82969 8.9596 9.73608 8.43806 9.73608Z" fill="#D72B27"/>
<path d="M21.5435 20.7688H20.6074V10.3245C20.6074 9.80295 21.022 9.73608 21.5435 9.73608C22.0651 9.73608 22.4796 9.80295 22.4796 10.3245V19.846C22.4796 20.3542 22.0651 20.7688 21.5435 20.7688Z" fill="#D54B3D"/>
<path d="M21.5435 9.86981C22.1453 9.86981 22.3459 9.99017 22.3459 10.3245V19.846C22.3459 20.2873 21.9848 20.6484 21.5435 20.6484H20.7412V10.3245C20.7412 9.9768 20.9417 9.86981 21.5435 9.86981ZM21.5435 9.73608C21.022 9.73608 20.6074 9.80295 20.6074 10.3245V20.7821H21.5435C22.0651 20.7821 22.4796 20.3676 22.4796 19.846V10.3245C22.4796 9.80295 22.0651 9.73608 21.5435 9.73608Z" fill="#D72B27"/>
<path d="M17.5317 20.7688L7.58032 10.7401L8.10375 10.953L15.0309 15.9411L22.4797 10.4791L22.4797 19.846C22.4797 20.3542 22.0651 20.7688 21.5436 20.7688H17.5317Z" fill="url(#paint0_linear_1_2094)"/>
<path d="M14.9774 16.2621L7.90311 11.1269C7.48855 10.8193 7.3682 10.2309 7.67577 9.81631C7.98335 9.40175 8.58514 9.30814 9.01307 9.61572L14.9908 13.9619L21.0086 9.56223C21.4232 9.25465 22.0116 9.34826 22.3192 9.77619C22.6267 10.1908 22.5331 10.7792 22.1052 11.0867L14.9774 16.2621Z" fill="#D54B3D"/>
<path d="M21.5436 9.50873C21.7976 9.50873 22.0384 9.62909 22.1988 9.84305C22.4529 10.2041 22.3727 10.6989 22.025 10.9664L14.9774 16.1016L7.98339 11.0199C7.62232 10.7524 7.5287 10.2442 7.78279 9.89654C7.92989 9.69595 8.18398 9.56222 8.45144 9.56222C8.62529 9.56222 8.79913 9.61571 8.93286 9.7227L14.8972 14.0555L14.9774 14.109L15.0577 14.0555L21.0621 9.65583C21.2092 9.56222 21.3697 9.50873 21.5436 9.50873ZM21.5436 9.375C21.3563 9.375 21.1557 9.42849 20.9953 9.54885L14.9774 13.9485L8.99973 9.60234C8.83925 9.48198 8.63866 9.42849 8.43807 9.42849C8.14386 9.42849 7.84966 9.56222 7.66243 9.81631C7.36823 10.2309 7.48859 10.8193 7.90315 11.1269L14.9774 16.2754L22.0918 11.0867C22.5064 10.7792 22.6 10.2041 22.3058 9.77619C22.1186 9.50873 21.8378 9.375 21.5436 9.375Z" fill="#D72B27"/>
</g>
<defs>
<linearGradient id="paint0_linear_1_2094" x1="7.5809" y1="15.6237" x2="22.4845" y2="15.6237" gradientUnits="userSpaceOnUse">
<stop stop-opacity="0.1"/>
<stop offset="1" stop-opacity="0.2"/>
</linearGradient>
<clipPath id="clip0_1_2094">
<rect width="30" height="30" fill="white"/>
</clipPath>
</defs>
</svg>
