<svg width="30" height="30" viewBox="0 0 30 30" fill="none" xmlns="http://www.w3.org/2000/svg">
<path d="M15 30C23.2843 30 30 23.2843 30 15C30 6.71573 23.2843 0 15 0C6.71573 0 0 6.71573 0 15C0 23.2843 6.71573 30 15 30Z" fill="url(#paint0_linear_1_1831)"/>
<path d="M5.58639 15.7337C7.33989 14.7679 9.29727 13.9617 11.1261 13.1515C14.2725 11.8243 17.4314 10.5202 20.6221 9.30608C21.2429 9.09922 22.3584 8.89695 22.4678 9.81691C22.4079 11.1192 22.1615 12.4138 21.9925 13.7084C21.5636 16.5554 21.0678 19.3927 20.5844 22.2303C20.4178 23.1755 19.2338 23.6648 18.4761 23.0599C16.6554 21.8301 14.8206 20.6121 13.0231 19.3538C12.4343 18.7555 12.9803 17.8963 13.5062 17.469C15.0058 15.9911 16.5962 14.7355 18.0174 13.1813C18.4008 12.2555 17.2681 13.0357 16.8944 13.2748C14.8414 14.6895 12.8387 16.1907 10.6742 17.434C9.56854 18.0427 8.27992 17.5226 7.17479 17.183C6.18393 16.7727 4.73192 16.3594 5.58629 15.7338L5.58639 15.7337Z" fill="white"/>
<defs>
<linearGradient id="paint0_linear_1_1831" x1="20.0012" y1="5.001" x2="12.5012" y2="22.5" gradientUnits="userSpaceOnUse">
<stop stop-color="#37AEE2"/>
<stop offset="1" stop-color="#1E96C8"/>
</linearGradient>
</defs>
</svg>
