<svg height="580" width="580" xmlns="http://www.w3.org/2000/svg"><path d="m66.275 1.768c-41.335 0-64.571 21.371-64.571 65.036v450.123c0 40.844 20.895 62.229 62.192 62.229h452.024c41.307 0 62.229-20.315 62.229-62.229v-450.123c0-42.601-20.922-65.036-63.521-65.036-.004 0-448.495-.143-448.353 0z" fill="#111" stroke="#eee" stroke-width="3.408"/><path d="m109.53419 508.69651 44.83749-108.55394 67.26813-38.79503 1.63527-147.12758 18.51055-40.23748 47.25697-111.885303m182.66855 446.599333-33.89984-82.07331-108.10312-175.28418 4.14183-90.93788-41.64728-98.303963" fill="none" opacity=".75" stroke="#fff" stroke-linecap="round" stroke-width="30.786835"/><path d="m73.249534 149.81914v274.00282h437.750296v-274.00282zm69.975906 25.88018c12.26115.0001 22.09889.71111 29.53612 2.08453 7.43703 1.37362 13.64218 4.23968 18.60038 8.59466 3.48395 3.01515 6.23173 7.26826 8.24189 12.79578 2.00992 5.52768 3.01442 10.81737 3.01455 15.84239v47.11026c-.00013 5.02511.32544 8.98617.96208 11.8337.6364 2.84757 2.02489 6.48154 4.16905 10.90367h-38.38733c-1.54113-2.7471-2.54563-4.84513-3.01455-6.28564-.4691-1.44063-.94213-3.71665-1.41105-6.79877-5.36016 5.15911-10.70973 8.85302-16.00275 11.06402-7.23619 2.94803-15.62558 4.42561-25.20671 4.42561-12.73027 0-22.39134-2.95513-28.990941-8.85121-6.59963-5.89615-9.90952-13.16417-9.909512-21.80735-.00001-8.10712 2.394428-14.7853 7.151525-20.01144 4.757069-5.22604 13.531888-9.09517 26.329158-11.64127 15.34323-3.082 25.2686-5.23847 29.82474-6.47806 4.55601-1.23946 9.4033-2.86448 14.49547-4.87459-.00008-5.025-1.0338-8.54078-3.11075-10.5509-2.07714-2.00995-5.74179-3.01446-10.96781-3.01455-6.70017.00008-11.72271 1.06301-15.07273 3.20697-2.61309 1.67511-4.74179 4.83752-6.34978 9.46054l-39.092861-4.13699c1.474013-6.83404 3.601289-12.21134 6.381854-16.13101 2.780533-3.91947 6.799987-7.317 12.026107-10.19814 3.75203-2.07693 8.8914-3.67133 15.45756-4.81044 6.56607-1.13892 13.6881-1.73166 21.32629-1.73177zm280.96193 0c17.42023.00011 30.68469 3.13332 39.83047 9.36433 9.14555 6.23121 15.58865 15.33018 19.27384 27.32332l-38.51561 5.13114c-1.20611-4.55602-3.39181-7.98273-6.57427-10.29435-3.18265-2.31145-7.46783-3.46343-12.82785-3.46352-6.76718.00008-12.23214 2.42229-16.41965 7.2798-4.18763 4.85766-6.28569 12.21478-6.28564 22.0639-.00006 8.7772 2.06737 15.42334 6.22151 19.97937 4.15402 4.55612 9.47434 6.86293 15.90653 6.8629 5.36.00003 9.84966-1.3899 13.5013-4.13698 3.65148-2.74703 6.40071-6.97235 8.20982-12.66749l38.86839 4.4256c-2.14417 8.10718-5.65994 15.14015-10.55091 21.06974-4.8912 5.92959-11.12413 10.5389-18.72866 13.82201-7.60473 3.283-17.2658 4.90665-28.99093 4.90665-11.32326 0-20.74782-1.06435-28.28541-3.1749-7.53767-2.11053-14.03918-5.50658-19.46625-10.2302-5.42714-4.72356-9.68168-10.279-12.76372-16.64413-3.08207-6.36509-4.61803-14.81577-4.61801-25.33501 0-10.98814 1.86009-20.11631 5.61217-27.41952 2.74702-5.36 6.49933-10.17666 11.25644-14.43132 4.75707-4.25451 9.66276-7.41547 14.68788-9.49261 7.9731-3.28296 18.19628-4.93862 30.65856-4.93873zm-261.55981 58.49499c-5.62818 2.01008-11.50919 3.78257-17.60622 5.32355-8.30821 2.2111-13.56726 4.39821-15.77825 6.54221-2.27811 2.21108-3.39943 4.72234-3.39938 7.53636-.00004 3.21609 1.12271 5.84562 3.36731 7.88912 2.24448 2.04356 5.5223 3.07871 9.87744 3.07869 4.55602.00002 8.81199-1.12418 12.73164-3.33524 3.91948-2.21101 6.69649-4.89896 8.3381-8.08154 1.64145-3.18253 2.46928-7.31881 2.46936-12.41095zm77.80089 20.94146h41.30568v51.05483c4.08702-4.28797 8.72556-7.50881 13.91821-9.65295 5.19254-2.14395 10.92319-3.20685 17.22139-3.20697 12.99814.00012 23.75276 4.66786 32.26203 14.01443 8.50903 9.34674 12.76358 22.76012 12.76371 40.24737-.00013 11.65825-1.95073 21.94128-5.83667 30.8189-3.8862 8.87768-9.26351 15.4945-16.13102 19.88317-6.86774 4.38857-14.49058 6.60634-22.86564 6.60634-7.16921 0-13.72771-1.56802-19.69074-4.65009-4.48914-2.41195-9.36279-6.93227-14.65582-13.56545v15.77825h-38.29113zm59.87399 68.75726c-5.56115.00007-10.08001 2.03688-13.59753 6.15737-3.51759 4.12064-5.29153 10.38563-5.29148 18.76073-.00005 9.17921 1.74466 15.82677 5.19528 19.9473 3.45051 4.1206 7.79124 6.18947 13.0844 6.18944 4.89101.00003 8.99809-2.03963 12.31473-6.09323 3.31648-4.05354 5.00278-10.8792 5.00287-20.46042-.00008-8.44211-1.62512-14.61517-4.87459-18.5683-3.24964-3.953-7.21067-5.93281-11.83368-5.93289z" fill="#fff"/><path d="m73.263275 149.82085h437.7486v273.98654h-437.7486z" fill="none" stroke="#fff" stroke-linecap="round" stroke-linejoin="round" stroke-width="20.524557"/></svg>