<svg width="30" height="30" viewBox="0 0 30 30" fill="none" xmlns="http://www.w3.org/2000/svg">
<path d="M23.8241 23.3374L21.1491 17.9999L18.4741 23.3374" stroke="white" stroke-width="1.5" stroke-linecap="round" stroke-linejoin="round"/>
<path d="M18.9624 22.3878H23.3624" stroke="white" stroke-width="1.5" stroke-linecap="round" stroke-linejoin="round"/>
<path d="M21.1497 27.4997C17.6497 27.4997 14.7997 24.6622 14.7997 21.1497C14.7997 17.6497 17.6372 14.7997 21.1497 14.7997C24.6497 14.7997 27.4997 17.6372 27.4997 21.1497C27.4997 24.6622 24.6622 27.4997 21.1497 27.4997Z" stroke="white" stroke-width="1.5" stroke-linecap="round" stroke-linejoin="round"/>
<path d="M6.275 2.5H11.175C13.7625 2.5 15.0125 3.75003 14.95 6.27503V11.175C15.0125 13.7625 13.7625 15.0125 11.175 14.95H6.275C3.75 15 2.5 13.75 2.5 11.1625V6.26251C2.5 3.75001 3.75 2.5 6.275 2.5Z" stroke="white" stroke-width="1.5" stroke-linecap="round" stroke-linejoin="round"/>
<path d="M11.2615 7.31262H6.18652" stroke="white" stroke-width="1.5" stroke-linecap="round" stroke-linejoin="round"/>
<path d="M8.71094 6.4624V7.31239" stroke="white" stroke-width="1.5" stroke-linecap="round" stroke-linejoin="round"/>
<path d="M9.98683 7.2998C9.98683 9.4873 8.27432 11.2623 6.17432 11.2623" stroke="white" stroke-width="1.5" stroke-linecap="round" stroke-linejoin="round"/>
<path d="M11.2627 11.2625C10.3502 11.2625 9.5252 10.775 8.9502 10" stroke="white" stroke-width="1.5" stroke-linecap="round" stroke-linejoin="round"/>
<path opacity="0.4" d="M2.5 18.75C2.5 23.5875 6.4125 27.5 11.25 27.5L9.9375 25.3125" stroke="white" stroke-width="1.5" stroke-linecap="round" stroke-linejoin="round"/>
<path opacity="0.4" d="M27.5 11.25C27.5 6.4125 23.5875 2.5 18.75 2.5L20.0625 4.6875" stroke="white" stroke-width="1.5" stroke-linecap="round" stroke-linejoin="round"/>
</svg>
