<svg height="580" width="580" xmlns="http://www.w3.org/2000/svg"><path d="m66.275 1.768c-41.335 0-64.571 21.371-64.571 65.036v450.123c0 40.844 20.895 62.229 62.192 62.229h452.024c41.307 0 62.229-20.315 62.229-62.229v-450.123c0-42.601-20.922-65.036-63.521-65.036-.004 0-448.495-.143-448.353 0z" fill="#111" stroke="#eee" stroke-width="3.408"/><path d="m272.88678 135.49087-248.332012 124.71621 309.485992 4.15019 225.45964-117.55253z" style="fill:#fff;fill-rule:evenodd;stroke:#fff;stroke-width:10;stroke-linecap:round;stroke-linejoin:round"/><path d="m127.2667 365.3754 26.83314-79.28188 186.99348 5.33244 124.50346-67.7787 49.80945 57.83619s-62.88373 6.9314-90.28533 23.95428c-27.4016 17.02287-62.94484 58.0061-62.94484 58.0061s-77.38378-26.80583-113.16657-27.40769c-68.31875-1.14911-117.50082 28.4224-121.74279 29.33926z" style="fill:#fff;fill-rule:evenodd;stroke:#fff;stroke-width:10;stroke-linecap:round;stroke-linejoin:round"/><path d="m134.25 280.09375-30.03125.4375c-4.1904 6.98455-7.208762 15.75451-10.4375 26.1875-4.652567 15.0338-8.589858 33.04796-10.90625 51-8.728732 67.64766-8.75 98.9375-8.75 98.9375h20s-.03718-29.4853 8.59375-96.375c2.1652-16.7803 5.90533-33.92028 10.15625-47.65625s10.17753-24.52167 11.6875-26c3.53733-3.46321 6.61602-5.20164 8.625-6.09375.44788-.19889.78068-.32356 1.0625-.4375z" fill="#fff" fill-rule="evenodd"/><g stroke="#fff" stroke-linejoin="round"><path d="m106.46373 433.24868c0 13.10677-14.63738 47.74416-27.744157 47.74416-13.106776 0-19.744159-34.63739-19.744159-47.74416 0-13.10678 10.637383-23.74416 23.744159-23.74416 13.106777 0 23.744157 10.63738 23.744157 23.74416z" fill="#fff" stroke-width="15.474642"/><path d="m81.949709 438.15162-12.735398 54.63857z" fill="none" stroke-linecap="round" stroke-width="10"/><path d="m106.41283 437.87281-17.793913 58.59299z" fill="none" stroke-linecap="round" stroke-width="10"/><path d="m56.079496 432.50244-4.285981 53.22262z" fill="none" stroke-linecap="round" stroke-width="10"/><path d="m65.682673 436.61091-4.285981 53.22262z" fill="none" stroke-linecap="round" stroke-width="10"/><path d="m91.949709 440.15162-12.735398 54.63857z" fill="none" stroke-linecap="round" stroke-width="10"/></g></svg>