<svg height="100" viewBox="0 0 100 100" width="100" xmlns="http://www.w3.org/2000/svg"><g fill="#fff"><path d="m33.3 73.5a4.89 4.89 0 0 1 -4.8-4.9v-34h-1.6a4.89 4.89 0 0 0 -4.8 4.9v35.4a4.89 4.89 0 0 0 4.8 4.9h35.6a4.89 4.89 0 0 0 4.8-4.9v-1.4z"/><path d="m46.5 30.2h17.8a1.58 1.58 0 0 0 1.6-1.6v-3.3a4.91 4.91 0 0 0 -4.9-4.9h-11.3a4.91 4.91 0 0 0 -4.9 4.9v3.3a1.73 1.73 0 0 0 1.7 1.6zm26.7-5.7h-1.6a.74.74 0 0 0 -.8.8v3.3a6.57 6.57 0 0 1 -6.5 6.6h-17.8a6.57 6.57 0 0 1 -6.5-6.6v-3.3a.74.74 0 0 0 -.8-.8h-1.6a4.91 4.91 0 0 0 -4.9 4.9v35.3a4.91 4.91 0 0 0 4.9 4.9h35.6a4.91 4.91 0 0 0 4.9-4.9v-35.3a4.91 4.91 0 0 0 -4.9-4.9zm-26.7 35.3a1.58 1.58 0 0 1 -1.6 1.6h-1.6a1.58 1.58 0 0 1 -1.6-1.6v-1.6a1.58 1.58 0 0 1 1.6-1.6h1.6a1.58 1.58 0 0 1 1.6 1.6zm0-8.2a1.58 1.58 0 0 1 -1.6 1.6h-1.6a1.58 1.58 0 0 1 -1.6-1.6v-1.6a1.58 1.58 0 0 1 1.6-1.6h1.6a1.58 1.58 0 0 1 1.6 1.6zm0-8.2a1.58 1.58 0 0 1 -1.6 1.6h-1.6a1.58 1.58 0 0 1 -1.6-1.6v-1.6a1.58 1.58 0 0 1 1.6-1.6h1.6a1.58 1.58 0 0 1 1.6 1.6zm22.7 16.4a1.58 1.58 0 0 1 -1.6 1.6h-16.2a1.58 1.58 0 0 1 -1.6-1.6v-1.6a1.58 1.58 0 0 1 1.6-1.6h16.2a1.58 1.58 0 0 1 1.6 1.6zm0-8.2a1.58 1.58 0 0 1 -1.6 1.6h-16.2a1.58 1.58 0 0 1 -1.6-1.6v-1.6a1.58 1.58 0 0 1 1.6-1.6h16.2a1.58 1.58 0 0 1 1.6 1.6zm0-8.2a1.58 1.58 0 0 1 -1.6 1.6h-16.2a1.58 1.58 0 0 1 -1.6-1.6v-1.6a1.58 1.58 0 0 1 1.6-1.6h16.2a1.58 1.58 0 0 1 1.6 1.6z"/></g></svg>